# xmcd
#
# Track frame offsets:
#	150
#	15612
#	33100
#	46870
#	62135
#	81675
#	97550
#	110542
#	130992
#	148400
#	157040
#	176262
#
# Disc length: 2689 seconds
#
# Revision: 1
# Processed by: cddbd v1.5.1PL0 Copyright (c) Steve Scherf et al.
# Submitted via: CDex 1.50Beta5
#
DISCID=9b0a7f0c
DTITLE=将番頭 - funtastic!
DYEAR=1900
DGENRE=Rock
TTITLE0=No day, No Pass
TTITLE1=ABCD...EASY!
TTITLE2=50cc
TTITLE3=鴻漸ノ翼
TTITLE4=FLOW
TTITLE5=step
TTITLE6=what I doing?
TTITLE7=Room Warming Party
TTITLE8=ANSWER
TTITLE9=open your eyes
TTITLE10=ゆくえ
TTITLE11=茜空
EXTD=
EXTT0=
EXTT1=
EXTT2=
EXTT3=
EXTT4=
EXTT5=
EXTT6=
EXTT7=
EXTT8=
EXTT9=
EXTT10=
EXTT11=
PLAYORDER=
